<?xml version="1.0" standalone="no"?><!DOCTYPE svg PUBLIC "-//W3C//DTD SVG 1.1//EN" "http://www.w3.org/Graphics/SVG/1.1/DTD/svg11.dtd"><svg t="1710855086662" class="icon" viewBox="0 0 1024 1024" version="1.1" xmlns="http://www.w3.org/2000/svg" p-id="6655" xmlns:xlink="http://www.w3.org/1999/xlink" width="32" height="32"><path d="M102.4 0h257.6384a102.4 102.4 0 0 1 102.4 102.4v389.7856a102.4 102.4 0 0 1-102.4 102.4H102.4a102.4 102.4 0 0 1-102.4-102.4V102.4a102.4 102.4 0 0 1 102.4-102.4z m561.5616 429.4144H921.6a102.4 102.4 0 0 1 102.4 102.4V921.6a102.4 102.4 0 0 1-102.4 102.4h-257.6384a102.4 102.4 0 0 1-102.4-102.4v-389.7856a102.4 102.4 0 0 1 102.4-102.4z m0-429.4144H921.6a102.4 102.4 0 0 1 102.4 102.4v191.5904a102.4 102.4 0 0 1-102.4 102.4h-257.6384a102.4 102.4 0 0 1-102.4-102.4V102.4a102.4 102.4 0 0 1 102.4-102.4zM102.4 627.6096h257.6384a102.4 102.4 0 0 1 102.4 102.4V921.6a102.4 102.4 0 0 1-102.4 102.4H102.4a102.4 102.4 0 0 1-102.4-102.4v-191.5904a102.4 102.4 0 0 1 102.4-102.4z" fill="#4DA1FF" p-id="6656"></path></svg>