<?xml version="1.0" standalone="no"?><!DOCTYPE svg PUBLIC "-//W3C//DTD SVG 1.1//EN" "http://www.w3.org/Graphics/SVG/1.1/DTD/svg11.dtd"><svg t="1710856240218" class="icon" viewBox="0 0 1024 1024" version="1.1" xmlns="http://www.w3.org/2000/svg" p-id="8767" width="16" height="16" xmlns:xlink="http://www.w3.org/1999/xlink"><path d="M812.137931 406.068966C812.137931 181.803269 630.334658 0 406.068966 0 181.803273 0 0 181.803269 0 406.068966 0 630.334662 181.803273 812.137931 406.068966 812.137931 630.334658 812.137931 812.137931 630.334662 812.137931 406.068966ZM70.62069 406.068966C70.62069 220.805999 220.806003 70.62069 406.068966 70.62069 591.331928 70.62069 741.517241 220.805999 741.517241 406.068966 741.517241 591.331932 591.331928 741.517241 406.068966 741.517241 220.806003 741.517241 70.62069 591.331932 70.62069 406.068966ZM963.201748 1013.13812C976.991303 1026.927667 999.348577 1026.927667 1013.138114 1013.13812 1026.927669 999.348572 1026.927669 976.991299 1013.138114 963.201751L713.519916 663.583539C699.730361 649.793993 677.373087 649.793993 663.583532 663.583539 649.793995 677.373087 649.793995 699.730361 663.583532 713.519909L963.201748 1013.13812Z" fill="#389BFF" p-id="8768"></path></svg>