<?xml version="1.0" standalone="no"?><!DOCTYPE svg PUBLIC "-//W3C//DTD SVG 1.1//EN" "http://www.w3.org/Graphics/SVG/1.1/DTD/svg11.dtd"><svg t="1710855041464" class="icon" viewBox="0 0 1471 1024" version="1.1" xmlns="http://www.w3.org/2000/svg" p-id="5437" width="45.96875" height="32" xmlns:xlink="http://www.w3.org/1999/xlink"><path d="M0 322.314391l894.268143 520.942682V1024L0 503.057319V322.314391z" fill="#B8D9F6" p-id="5438"></path><path d="M70.659779 418.416728v-3.274785l-6.54957-3.652644v-3.652645L55.419434 403.050431v3.652644L48.869865 403.050431v3.400738L42.950062 403.050431v34.133333l33.62952 18.767036v-34.133334l-5.919803-3.400738zM42.950062 492.603198l5.919803 3.274785v3.274785l6.549569 3.652644v3.652645l8.690775 4.786223v-3.652644l6.54957 3.652644v-3.274784l5.919803 3.274784v-34.133333L42.950062 458.469865v34.133333zM119.151784 446.882165v-3.400738l-6.54957-3.652645v-3.652644l-8.690775-4.786224v3.652644l-6.549569-3.652644v3.400738l-5.919804-3.400738v34.133333l33.629521 18.767036v-34.133333l-5.919803-3.274785zM91.442066 520.942681l5.919804 3.274785v3.400738l6.549569 3.526691v3.652645l8.690775 4.786224v-3.526691l6.54957 3.526691v-3.274785l5.919803 3.274785v-34.133333l-33.629521-18.641083v34.133333zM167.643788 475.221648v-3.400738l-6.549569-3.652644v-3.526692l-8.690775-4.786223v3.526691l-6.549569-3.526691v3.274784l-5.919804-3.274784v34.133333l33.629521 18.641082v-34.133333l-5.919804-3.274785zM139.934071 549.282165l5.919804 3.274785v3.400738l6.549569 3.652644v3.652645l8.690775 4.786223v-3.652644l6.549569 3.652644v-3.400738l5.919804 3.400738v-34.133333l-33.629521-18.767036v34.133334zM216.135793 503.561132v-3.274785l-6.549569-3.652645v-3.652644l-8.564822-4.786224v3.652644l-6.549569-3.652644v3.274785l-6.045757-3.274785v34.133333l33.755474 18.641083v-34.133334l-6.045757-3.274784zM188.426076 577.621648l6.045757 3.400738v3.274785l6.549569 3.652644v3.652645l8.564822 4.786224v-3.652645l6.549569 3.652645v-3.274785l6.045757 3.274785v-34.133333l-33.755474-18.767036v34.133333zM264.627798 531.900615v-3.274785l-6.549569-3.652644v-3.652645l-8.564822-4.786224v3.652645l-6.549569-3.652645v3.274785l-6.045757-3.274785v34.133334l33.755474 18.641082v-34.133333l-6.045757-3.274785zM236.918081 606.087085l6.045757 3.274785v3.274784l6.549569 3.652645v3.652644l8.564822 4.786224v-3.652644l6.549569 3.652644v-3.274784l6.045757 3.274784v-34.133333l-33.755474-18.767036v34.259287zM344.860025 577.747601v-3.400738l-6.54957-3.652644v-3.652645l-8.690775-4.786223v3.652644l-6.549569-3.652644v3.400738l-5.919803-3.400738v34.133333l33.62952 18.767036v-34.133334l-5.919803-3.274785zM317.150308 651.808118l5.919803 3.274785v3.400738l6.549569 3.526691v3.652645l8.690775 4.786223v-3.526691l6.54957 3.526691v-3.274784l5.919803 3.274784v-34.133333l-33.62952-18.641082v34.133333zM393.35203 606.087085v-3.400738l-6.54957-3.652645v-3.526691l-8.690775-4.786224v3.526691l-6.423616-3.526691v3.274785l-6.045757-3.274785v34.00738l33.755474 18.767036v-34.133333l-6.045756-3.274785zM365.642312 680.147601l6.045757 3.274785v3.400738l6.423616 3.652645v3.526691l8.690775 4.912177v-3.652644l6.54957 3.652644v-3.400738l6.045756 3.400738v-34.133333l-33.755474-18.767036V680.147601zM441.844034 634.426568v-3.400738l-6.549569-3.526691v-3.652645l-8.564822-4.786223v3.652644l-6.549569-3.652644v3.274784l-6.045757-3.274784v34.133333l33.755474 18.641082v-34.133333l-6.045757-3.274785zM414.134317 708.487085l6.045757 3.400738v3.274785l6.549569 3.652644v3.652645l8.564822 4.786224v-3.652645l6.549569 3.652645v-3.274785l6.045757 3.274785v-34.133334l-33.755474-18.767035v34.133333zM490.461993 662.766052v-3.274785l-6.54957-3.652645v-3.652644l-8.690775-4.786224v3.652645l-6.549569-3.652645v3.274785l-6.045757-3.274785v34.133333l33.755474 18.641083v-34.133334l-5.919803-3.274784zM462.626322 736.826568l6.045757 3.400738v3.274785l6.549569 3.652645v3.652644l8.690775 4.786224v-3.652645l6.54957 3.652645v-3.274785l5.919803 3.274785v-34.133333l-33.755474-18.767036v34.133333zM538.953998 691.105535v-3.274785l-6.54957-3.652644v-3.652645l-8.690775-4.786224v3.652645l-6.549569-3.652645v3.274785l-5.919804-3.274785v34.133334l33.629521 18.767035v-34.133333l-5.919803-3.400738zM511.24428 765.292005l5.919804 3.274785v3.274784l6.549569 3.652645v3.652644l8.690775 4.786224v-3.652644l6.54957 3.652644v-3.274784l5.919803 3.274784v-34.133333l-33.629521-18.641082v34.133333zM633.167036 745.265437v-3.274785l-6.54957-3.652645v-3.652644l-8.690775-4.786224v3.526691l-6.549569-3.526691v3.274785l-5.919803-3.274785v34.133333l33.62952 18.641083v-34.133334l-5.919803-3.274784zM605.457319 819.325953l5.919803 3.400738v3.274785l6.549569 3.652645v3.652644l8.690775 4.786224v-3.652645l6.54957 3.652645v-3.274785l5.919803 3.274785v-34.133333l-33.62952-18.767036v34.133333zM681.659041 773.60492v-3.274785l-6.54957-3.652644v-3.652645l-8.690775-4.786224v3.652645l-6.549569-3.652645v3.274785l-5.919804-3.274785v34.133334l33.629521 18.641082v-34.133333l-5.919803-3.274785zM653.949323 847.665437l5.919804 3.400738v3.274784l6.549569 3.652645v3.652644l8.690775 4.786224v-3.652644l6.54957 3.652644v-3.274784l5.919803 3.274784v-34.133333l-33.629521-18.767036v34.133334zM730.151046 801.944403v-3.274784l-6.54957-3.652645v-3.652644l-8.690775-4.786224v3.652644l-6.549569-3.652644v3.274785l-5.919804-3.274785v34.133333l33.629521 18.767036v-34.133334l-5.919803-3.400738zM702.441328 876.130873l5.919804 3.274785v3.274785l6.549569 3.652644v3.652645l8.690775 4.786224v-3.652645l6.54957 3.652645v-3.274785l5.919803 3.274785v-34.133334l-33.629521-18.767035v34.259286zM778.64305 830.283887v-3.274785l-6.549569-3.652644v-3.652645l-8.564822-4.786224v3.652645l-6.549569-3.652645v3.400738l-6.045757-3.400738v34.133334l33.755474 18.767035v-34.133333l-6.045757-3.400738zM750.933333 904.470357l6.045757 3.274784v3.274785l6.549569 3.652645v3.652644l8.564822 4.786224v-3.526691l6.549569 3.526691v-3.274785l6.045757 3.274785v-34.133333l-33.755474-18.641083v34.133334zM827.135055 858.749323v-3.400738l-6.423616-3.652644v-3.526691l-8.690775-4.912177v3.652644l-6.549569-3.652644v3.400738l-6.045757-3.400738v34.133333l33.755474 18.767036v-34.133334l-6.045757-3.274785zM799.425338 932.80984l6.045757 3.274785v3.400738l6.549569 3.652644v3.526692l8.690775 4.912177v-3.652645l6.423616 3.652645v-3.400738l6.045757 3.400738v-34.259287l-33.755474-18.641082v34.133333z" fill="#5CA8EA" p-id="5439"></path><path d="M1471.134071 513.385486L894.268143 843.257073V1024l576.865928-333.272325z" fill="#99C9F2" p-id="5440"></path><path d="M1471.134071 513.385486L573.213284 0 0 322.314391l894.268143 519.683149z" fill="#E0EFFB" p-id="5441"></path><path d="M1037.225092 447.889791a10.328167 10.328167 0 0 1 14.736532 5.03813l16.499877 41.060763L1083.198032 529.633456a10.328167 10.328167 0 0 1-10.957934 13.980812l-72.549077-9.572448-60.079705-7.935055a10.328167 10.328167 0 0 1-3.778598-19.144895 10.328167 10.328167 0 0 0 0-17.75941l-165.754489-95.724477a10.328167 10.328167 0 0 1 0-17.75941l34.763099-20.152521a10.328167 10.328167 0 0 1 10.328168 0l186.158917 107.43813a10.328167 10.328167 0 0 0 10.328168 0zM842.3754 572.583518a10.328167 10.328167 0 0 1 14.736531 5.03813l16.499877 41.060763L887.844526 654.95695a10.328167 10.328167 0 0 1-10.957933 14.106765l-72.423124-9.572448-60.079705-7.935055a10.328167 10.328167 0 0 1-3.778598-19.144896 10.328167 10.328167 0 0 0 0-17.759409l-165.754489-95.724478a10.328167 10.328167 0 0 1 0-17.759409l34.763099-20.152522a10.328167 10.328167 0 0 1 10.328167 0L806.100861 587.697909a10.328167 10.328167 0 0 0 10.328167 0zM527.996064 299.138991a10.328167 10.328167 0 0 0 0 17.75941l165.628536 95.598524a10.328167 10.328167 0 0 1 0 17.75941l-34.763099 20.152521a10.328167 10.328167 0 0 1-10.328168 0l-186.032964-107.186224a10.328167 10.328167 0 0 0-10.328167 0l-25.946372 15.114391a10.328167 10.328167 0 0 1-14.736531-5.03813l-16.499877-41.060763L380.756704 277.097171a10.328167 10.328167 0 0 1 10.957933-13.980812l72.549078 9.572448 60.079704 7.935055a10.328167 10.328167 0 0 1 3.652645 18.515129zM722.845756 174.445264a10.328167 10.328167 0 0 0 0 17.75941l165.628537 95.598524a10.328167 10.328167 0 0 1 0 17.75941l-34.7631 20.152521a10.328167 10.328167 0 0 1-10.328167 0l-186.032964-107.312177a10.328167 10.328167 0 0 0-10.328168 0l-25.946371 15.114391a10.328167 10.328167 0 0 1-14.736532-5.03813l-16.499877-41.060763L575.606396 151.143911a10.328167 10.328167 0 0 1 10.957934-13.980811l72.549077 9.572447 60.079705 7.935056a10.328167 10.328167 0 0 1 3.652644 19.774661z" fill="#5CA8EA" p-id="5442"></path></svg>