<?xml version="1.0" standalone="no"?><!DOCTYPE svg PUBLIC "-//W3C//DTD SVG 1.1//EN" "http://www.w3.org/Graphics/SVG/1.1/DTD/svg11.dtd"><svg t="1710855108318" class="icon" viewBox="0 0 1024 1024" version="1.1" xmlns="http://www.w3.org/2000/svg" p-id="7706" xmlns:xlink="http://www.w3.org/1999/xlink" width="32" height="32"><path d="M190.492729 130.133333h-113.635556a10.168889 10.168889 0 0 0-10.097777 10.24v5.688889c0 2.716444 1.080889 5.319111 2.972444 7.253334 1.891556 1.905778 4.465778 2.986667 7.139556 2.986666h113.621333a10.026667 10.026667 0 0 0 7.139555-2.986666 10.311111 10.311111 0 0 0 2.958223-7.253334v-5.688889a10.311111 10.311111 0 0 0-2.958223-7.253333 10.026667 10.026667 0 0 0-7.139555-2.986667zM190.492729 225.848889h-113.635556a10.168889 10.168889 0 0 0-10.097777 10.24v5.688889c0 5.660444 4.536889 10.24 10.097777 10.24h113.635556c5.575111 0 10.097778-4.579556 10.097778-10.24v-5.688889a10.168889 10.168889 0 0 0-10.097778-10.24zM190.492729 321.564444h-113.635556a10.168889 10.168889 0 0 0-10.097777 10.24v5.688889c0 5.660444 4.536889 10.24 10.097777 10.24h113.635556c5.575111 0 10.097778-4.579556 10.097778-10.24v-5.688889a10.168889 10.168889 0 0 0-10.097778-10.24z" fill="#1294FF" p-id="7707"></path><path d="M126.250951 570.88H22.442951V36.977778h222.478222v447.857778h11.633778c0.028444-26.453333 3.655111-52.778667 10.808889-78.222223V24.888889a10.595556 10.595556 0 0 0-10.524444-10.666667H10.524729A10.595556 10.595556 0 0 0 0.000284 24.888889V583.111111c0 5.888 4.707556 10.666667 10.524445 10.666667h108.984889c1.607111-7.822222 3.868444-15.473778 6.741333-22.897778zM516.622507 130.133333h-113.621334a10.168889 10.168889 0 0 0-10.097777 10.24v5.688889c0 5.660444 4.522667 10.24 10.097777 10.24h113.635556a10.026667 10.026667 0 0 0 7.139555-2.986666 10.311111 10.311111 0 0 0 2.958223-7.253334v-5.688889a10.311111 10.311111 0 0 0-2.958223-7.253333 10.026667 10.026667 0 0 0-7.153777-2.986667z" fill="#1294FF" p-id="7708"></path><path d="M539.207396 220.586667c110.791111 0.199111 209.294222 71.480889 245.475555 177.635555l5.76 16.782222 17.393778-2.56 6.869333-0.853333c2.346667-0.142222 4.693333-0.142222 7.025778 0 60.401778-1.777778 116.992 29.866667 147.712 82.645333a170.268444 170.268444 0 0 1 0 171.064889c-30.72 52.764444-87.310222 84.423111-147.712 82.645334H256.697173c-42.439111 0-81.664-22.954667-102.883555-60.231111a121.912889 121.912889 0 0 1 0-120.462223c21.219556-37.262222 60.444444-60.231111 102.883555-60.231111h22.442667V483.555556c0.540444-145.28 116.778667-262.826667 260.067556-262.968889z m0-22.755556c-155.747556 0-282.112 127.815111-282.510223 285.724445-78.008889 0-141.255111 64.113778-141.255111 143.217777s63.246222 143.217778 141.255111 143.217778h564.892445c68.494222 1.891556 132.622222-34.076444 167.424-93.923555a193.28 193.28 0 0 0 0-194.019556c-34.801778-59.847111-98.929778-95.815111-167.424-93.923556-5.475556 0-10.524444 1.137778-15.857778 1.564445-39.352889-115.171556-146.304-192.440889-266.524444-192.568889v0.711111zM817.095396 1007.786667h-22.442667v-86.613334h22.442667v86.613334z m-62.976 0h-85.290667v-22.755556h85.418667l-0.142223 22.755556z m-126.250667 0H542.862507v-22.755556h85.418666l-0.426666 22.755556z m-126.250667 0h-84.579555v-22.755556h85.418666l-0.839111 22.755556z m-126.250666 0h-84.152889v-22.755556h85.418666l-1.265777 22.755556z m-126.236445 0h-83.754667v-22.755556h85.432889l-1.678222 22.755556z m-126.250667 0H66.489173a11.306667 11.306667 0 0 1-11.221333-11.377778v-27.306667h22.442667v15.928889h47.274666l-2.104889 22.755556z m-45.169777-79.786667H55.26784v-86.471111h22.442667v86.471111z m739.242666-47.786667h-22.442666V793.6h22.442666v86.613333zM77.710507 800.426667H55.26784v-86.613334h22.442667v86.613334z m0-128H55.26784v-86.186667h22.442667v86.186667z" fill="#1294FF" p-id="7709"></path><path d="M711.466951 888.177778h-22.584889v-22.755556h11.377778v-46.933333h22.428444v58.311111a11.463111 11.463111 0 0 1-3.271111 8.049778 11.150222 11.150222 0 0 1-7.950222 3.328z m-57.784889 0H573.582507v-22.755556h80.099555v22.755556z m-115.313778 0h-80.227555v-22.755556h80.085333l0.142222 22.755556zM471.040284 839.111111h-22.158222v-80.924444h22.442667L471.040284 839.111111z m251.648-56.888889h-22.442666v-24.035555h22.442666V782.222222z" fill="#1294FF" p-id="7710"></path><path d="M441.017173 426.951111m12.828445 0l0.014222 0q12.828444 0 12.828444 12.828445l0 194.929777q0 12.828444-12.828444 12.828445l-0.014222 0q-12.828444 0-12.828445-12.828445l0-194.929777q0-12.828444 12.828445-12.828445Z" fill="#EFBC30" p-id="7711"></path><path d="M548.466062 426.951111m12.828445 0l0.014222 0q12.828444 0 12.828444 12.828445l0 194.929777q0 12.828444-12.828444 12.828445l-0.014222 0q-12.828444 0-12.828445-12.828445l0-194.929777q0-12.828444 12.828445-12.828445Z" fill="#EFBC30" p-id="7712"></path><path d="M656.057173 426.951111m12.828445 0l0.014222 0q12.828444 0 12.828444 12.828445l0 194.929777q0 12.828444-12.828444 12.828445l-0.014222 0q-12.828444 0-12.828445-12.828445l0-194.929777q0-12.828444 12.828445-12.828445Z" fill="#EFBC30" p-id="7713"></path><path d="M348.586951 272.782222V36.977778h222.464V199.111111c7.580444 0.853333 15.061333 2.033778 22.442667 3.555556V24.888889a10.595556 10.595556 0 0 0-10.524445-10.666667H336.668729a10.595556 10.595556 0 0 0-10.524445 10.666667v271.36c7.04-8.248889 14.535111-16.071111 22.456889-23.466667z" fill="#1294FF" p-id="7714"></path></svg>