<?xml version="1.0" standalone="no"?><!DOCTYPE svg PUBLIC "-//W3C//DTD SVG 1.1//EN" "http://www.w3.org/Graphics/SVG/1.1/DTD/svg11.dtd"><svg t="1710950953045" class="icon" viewBox="0 0 1024 1024" version="1.1" xmlns="http://www.w3.org/2000/svg" p-id="4544" xmlns:xlink="http://www.w3.org/1999/xlink" width="16" height="16"><path d="M891.4 872.2H134.6c-33.2 0-60.2-27-60.2-60.2V611.2c0-33.2 27-60.2 60.2-60.2h756.8c33.2 0 60.2 27 60.2 60.2V812c-0.1 33.3-27 60.2-60.2 60.2z" fill="#CBE4FE" p-id="4545"></path><path d="M247.6 586.7h-3.1c-14 0-25.3-11.3-25.3-25.3V162.1c0-14 11.3-25.3 25.3-25.3h3.1c14 0 25.3 11.3 25.3 25.3v399.3c0 14-11.3 25.3-25.3 25.3z" fill="#CBE4FE" p-id="4546"></path><path d="M247.6 601.6h-3.1c-22.2 0-40.3-18-40.3-40.3V162.1c0-22.2 18-40.3 40.3-40.3h3.1c22.2 0 40.3 18 40.3 40.3v399.3c-0.1 22.2-18.1 40.2-40.3 40.2z m-3.1-449.8c-5.7 0-10.4 4.6-10.4 10.4v399.3c0 5.7 4.6 10.4 10.4 10.4h3.1c5.7 0 10.4-4.6 10.4-10.4V162.1c0-5.7-4.6-10.4-10.4-10.4h-3.1v0.1z" fill="#1B81FC" p-id="4547"></path><path d="M783.4 586.7h-3.1c-14 0-25.3-11.3-25.3-25.3V162.1c0-14 11.3-25.3 25.3-25.3h3.1c14 0 25.3 11.3 25.3 25.3v399.3c-0.1 14-11.4 25.3-25.3 25.3z" fill="#CBE4FE" p-id="4548"></path><path d="M783.4 601.6h-3.1c-22.2 0-40.3-18-40.3-40.3V162.1c0-22.2 18-40.3 40.3-40.3h3.1c22.2 0 40.3 18 40.3 40.3v399.3c-0.2 22.2-18.2 40.2-40.3 40.2z m-3.2-449.8c-5.7 0-10.4 4.6-10.4 10.4v399.3c0 5.7 4.6 10.4 10.4 10.4h3.1c5.7 0 10.4-4.6 10.4-10.4V162.1c0-5.7-4.6-10.4-10.4-10.4h-3.1v0.1z" fill="#1B81FC" p-id="4549"></path><path d="M878.9 831.1H149c-33.2 0-60.2-27-60.2-60.2v-191c0-33.2 27-60.2 60.2-60.2h729.8c33.2 0 60.2 27 60.2 60.2V771c-0.1 33.3-27 60.1-60.1 60.1z" fill="#FFFFFF" p-id="4550"></path><path d="M878.9 846H149c-41.4 0-75.1-33.7-75.1-75.1v-191c0-41.4 33.7-75.1 75.1-75.1h729.8c41.4 0 75.1 33.7 75.1 75.1V771c0 41.3-33.7 75-75 75zM149 534.5c-24.9 0-45.3 20.3-45.3 45.3V771c0 24.9 20.3 45.3 45.3 45.3h729.8c24.9 0 45.3-20.3 45.3-45.3V579.9c0-24.9-20.3-45.3-45.3-45.3l-729.8-0.1z" fill="#1B81FC" p-id="4551"></path><path d="M708.6 739H340c-47 0-85 38-85 85v5.4h538.5V824c0.1-47-37.9-85-84.9-85z" fill="#CBE4FE" p-id="4552"></path><path d="M808.5 844.2H240.1v-20.3c0-55 44.9-99.9 99.9-99.9h368.6c55 0 99.9 44.9 99.9 99.9v20.3z m-537.9-29.8h507.5c-4.6-34.1-34-60.5-69.5-60.5H340c-35.3 0-64.7 26.4-69.4 60.5z" fill="#1B81FC" p-id="4553"></path><path d="M460.8 658.4c-8.2 0-14.9-6.7-14.9-14.9 0-16.7-13.6-30.1-30.1-30.1s-30.1 13.6-30.1 30.1c0 8.2-6.7 14.9-14.9 14.9s-14.9-6.7-14.9-14.9c0-33.1 26.8-59.9 59.9-59.9s59.9 26.8 59.9 59.9c0 8.2-6.6 14.9-14.9 14.9z" fill="#1B81FC" p-id="4554"></path><path d="M656.3 658.4c-8.2 0-14.9-6.7-14.9-14.9 0-16.7-13.6-30.1-30.1-30.1-16.7 0-30.1 13.6-30.1 30.1 0 8.2-6.7 14.9-14.9 14.9s-14.9-6.7-14.9-14.9c0-33.1 26.8-59.9 59.9-59.9s59.9 26.8 59.9 59.9c0 8.2-6.7 14.9-14.9 14.9z" fill="#1B81FC" p-id="4555"></path></svg>